<svg version="1" xmlns="http://www.w3.org/2000/svg" width="134.667" height="134.667" viewBox="0 0 101.000000 101.000000"><path d="M32.7 28.9c-.4 2-1.5 3.2-3.6 3.9-1.8.6-3.1 1.9-3.3 3.2-.2 1.1-.7 2.1-1.3 2.1-2.3.2-4.4 2-4.7 4.1-.3 2.1-.9 2.3-6.5 2.6-6.2.3-6.3.3-6.3 3.2 0 2.8-.3 3-3.5 3H0v18h3.5c3.2 0 3.5.2 3.5 3 0 2.5.4 3 2.5 3 2.4 0 2.5-.3 2.5-6 0-6.6.9-7.7 5.5-6.6 2 .5 2.5 1.3 2.5 3.6 0 2.4.5 2.9 2.8 3.2 2.1.2 2.8.9 3 3 .3 2.4.8 2.8 3.3 2.8 2.9 0 2.9 0 2.9-6v-6h-3.5c-3.2 0-3.5-.2-3.5-2.9 0-2.5-.4-3-2.7-3.3-2.2-.2-2.9-.9-3.1-2.9-.4-3.2 1.5-3.9 8.2-3.2 4.3.5 4.6.8 4.6 3.5v2.9l5.8-.3c5.6-.3 5.7-.3 6-3.6l.3-3.2h13l-.3-2.8-.3-2.7-9-.1-9-.2-.3-3.1c-.3-2.9-.1-3.1 2.7-3.1 2.8 0 3.1-.3 3.1-3v-3h19.1l-.3-2.8-.3-2.7-14.6-.3-14.6-.3-.6 3zM63.9 44.2c-.1.2-.2 1.5-.3 3-.2 2.8-.1 2.8 5.6 2.8 5.5 0 5.8-.1 5.8-2.5 0-2-.5-2.5-2.7-2.6-1.6 0-4-.3-5.5-.5-1.6-.3-2.9-.3-2.9-.2zM57 54c0 2.7.3 3 3 3s3-.3 3-3-.3-3-3-3-3 .3-3 3zM44.7 70.7c-1.1 2.2 0 4.8 2.3 5.3 1.5.4 2.6 1.5 3 3 .6 2.4.9 2.5 9.9 2.8l9.2.3-.3-3.3-.3-3.3-9.2.3-9.3.2v-3c0-2.5-.4-3-2.4-3-1.4 0-2.7.3-2.9.7zM8 83.4c-.5.5-1 2-1 3.3 0 2-.5 2.3-3.5 2.3H0v12h32v-2.9c0-2.6-.4-3-3.2-3.3-3.3-.3-3.3-.4-3.6-6-.2-4.4-.7-5.8-2-6.2-3.1-.8-14.1-.3-15.2.8zM44.6 89.6c-.3.9-.6 2.4-.6 3.5 0 1.4-.7 1.9-3 1.9-2.7 0-3 .3-3 3v3h25.1l-.3-2.8c-.2-2-.9-2.8-2.8-3.1-2.9-.4-4-1.7-4-4.9 0-2-.5-2.2-5.4-2.2-4 0-5.5.4-6 1.6z"/></svg>